# AST/ASF file generated using VICON BodyLanguage
# -----------------------------------------------
:version 1.10
:name VICON
:units
  mass 1.0
  length 0.45
  angle deg
:documentation
   .ast/.asf automatically generated from VICON data using
   VICON BodyBuilder and BodyLanguage model FoxedUp or BRILLIANT.MOD
:root
   order TX TY TZ RX RY RZ
   axis XYZ
   position 0 0 0  
   orientation 0 0 0 
:bonedata
  begin
     id 1 
     name lhipjoint
     direction 0.54267 -0.795011 0.271047 
     length 2.39899 
     axis 0 0 0  XYZ
  end
  begin
     id 2 
     name lfemur
     direction 0.34202 -0.939693 0  
     length 7.49701  
     axis 0 0 20  XYZ
    dof rx ry rz
    limits (-160.0 20.0)
           (-70.0 70.0)
           (-60.0 70.0)
  end
  begin
     id 3 
     name ltibia
     direction 0.34202 -0.939693 0   
     length 8.1668   
     axis 0 0 20   XYZ
    dof rx
    limits (-10.0 170.0)
  end
  begin
     id 4 
     name lfoot
     direction 0.0736283 -0.202292 0.976554   
     length 2.13544   
     axis -90 7.62852e-016 20   XYZ
    dof rx rz
    limits (-45.0 90.0)
           (-70.0 20.0)
  end
  begin
     id 5 
     name ltoes
     direction 1.53557e-011 -4.22024e-011 1   
     length 1.07411   
     axis -90 7.62852e-016 20   XYZ
    dof rx
    limits (-90.0 20.0)
  end
  begin
     id 6 
     name rhipjoint
     direction -0.538061 -0.797813 0.272002   
     length 2.39057  
     axis 0 0 0  XYZ 
  end
  begin
     id 7 
     name rfemur
     direction -0.34202 -0.939693 0   
     length 7.50152   
     axis 0 0 -20   XYZ
    dof rx ry rz
    limits (-160.0 20.0)
           (-70.0 70.0)
           (-70.0 60.0)
  end
  begin
     id 8 
     name rtibia
     direction -0.34202 -0.939693 0   
     length 8.05793   
     axis 0 0 -20   XYZ
    dof rx
    limits (-10.0 170.0)
 end
 begin
     id 9 
     name rfoot
     direction -0.0765195 -0.210236 0.974652   
     length 2.28698  
     axis -90 -7.62852e-016 -20   XYZ
    dof rx rz
    limits (-45.0 90.0)
           (-20.0 70.0)
  end
  begin
     id 10 
     name rtoes
     direction -1.53542e-011 -4.21847e-011 1   
     length 1.14762   
     axis -90 -7.62852e-016 -20   XYZ
    dof rx
    limits (-90.0 20.0)
  end
  begin
     id 11 
     name lowerback
     direction -0.0217239 0.996592 -0.0795765   
     length 2.08176   
     axis 0 0 0   XYZ
    dof rx ry rz
    limits (-20.0 45.0)
           (-30.0 30.0)
           (-30.0 30.0)
  end
  begin
     id 12 
     name upperback
     direction -0.00563773 0.999651 -0.0258155   
     length 2.08898   
     axis 0 0 0   XYZ
    dof rx ry rz
    limits (-20.0 45.0)
           (-30.0 30.0)
           (-30.0 30.0)
  end
  begin
     id 13 
     name thorax
     direction 0.0032706 0.999923 0.0119599   
     length 2.0968   
     axis 0 0 0   XYZ
    dof rx ry rz
    limits (-20.0 45.0)
           (-30.0 30.0)
           (-30.0 30.0)
  end
  begin
     id 14 
     name lowerneck
     direction -0.0285886 0.99568 0.0883427   
     length 1.81272   
     axis 0 0 0   XYZ
    dof rx ry rz
    limits (-20.0 45.0)
           (-30.0 30.0)
           (-30.0 30.0)
  end
  begin
     id 15 
     name upperneck
     direction 0.0807535 0.97985 -0.18268   
     length 1.82518   
     axis 0 0 0   XYZ
    dof rx ry rz
    limits (-20.0 45.0)
           (-30.0 30.0)
           (-30.0 30.0)
  end
  begin
     id 16
     name head
     direction 0.0236605 0.997053 -0.0729767  
     length 1.84443  
     axis 0 0 0   XYZ
    dof rx ry rz
    limits (-20.0 45.0)
           (-30.0 30.0)
           (-30.0 30.0)
  end
  begin
     id 17 
     name lclavicle
     direction 0.918986 0.39378 -0.0200683  
     length 3.27822  
     axis 0 0 0   XYZ
    dof ry rz
    limits (-20.0 10.0)
           (0.0 20.0)
  end
  begin
     id 18 
     name lhumerus
     direction 1 -4.4897e-011 2.09544e-027   
     length 5.5568   
     axis 180 -30 -90   XYZ
    dof rx ry rz
    limits (-60.0 90.0)
           (-90.0 90.0)
           (-90.0 90.0)
  end
  begin
     id 19
     name lradius
     direction 1 -4.48957e-011 -1.27696e-026   
     length 3.63979   
     axis 180 -30 -90   XYZ
    dof rx
    limits (-10.0 170.0)
  end
  begin
     id 20
     name lwrist
     direction 1 -4.49001e-011 -1.49001e-026   
     length 1.8199   
     axis 9.0955e-015 90 90   XYZ
    dof ry
    limits (-180.0 0.0)
 end
  begin
     id 21 
     name lhand
     direction 1 -4.48709e-011 -2.9758e-026   
     length 0.569419   
     axis 1.90115e-014 90 90   XYZ
    dof rx rz
    limits (-90.0 90.0)
           (-45.0 45.0)
  end
  begin
     id 22 
     name lfingers
     direction 1 -4.49175e-011 -5.96505e-026   
     length 0.45908   
     axis 3.80223e-014 90 90   XYZ
    dof rx
    limits (0.0 90.0)
  end
  begin
     id 23
     name lthumb
     direction 0.707107 -6.34864e-011 0.707107   
     length 0.65915   
     axis -90 45 -3.84942e-014   XYZ
    dof rx rz
    limits (-45.0 45.0)
           (-45.0 45.0)
  end
  begin
     id 24 
     name rclavicle
     direction -0.911913 0.396426 -0.106115   
     length 3.46301  
     axis 0 0 0   XYZ 
    dof ry rz
    limits (-10.0 20.0)
           (-20.0 0.0)
  end
  begin
     id 25 
     name rhumerus
     direction -1 -4.48965e-011 7.78516e-028  
     length 5.34339   
     axis 180 30 90   XYZ
    dof rx ry rz
    limits (-90.0 60.0)
           (-90.0 90.0)
           (-90.0 90.0)
  end
  begin
     id 26 
     name rradius
     direction -1 -4.48948e-011 -5.79823e-027   
     length 3.65101   
     axis 180 30 90   XYZ
    dof rx
    limits (-10.0 170.0)
  end
  begin
     id 27 
     name rwrist
     direction -1 -4.48995e-011 -1.48996e-026   
     length 1.8255   
     axis 9.0955e-015 -90 -90   XYZ
    dof ry
    limits (-180.0 0.0)
  end
  begin
     id 28
     name rhand
     direction -1 -4.48957e-011 -2.97937e-026   
     length 0.694249   
     axis 1.90115e-014 -90 -90   XYZ
    dof rx rz
    limits (-90.0 90.0)
           (-45.0 45.0)
  end
  begin
     id 29
     name rfingers
     direction -1 -4.4898e-011 -5.95943e-026   
     length 0.559721   
     axis 3.80223e-014 -90 -90   XYZ
    dof rx
    limits (0.0 90.0)
  end
  begin
     id 30
     name rthumb
     direction -0.707107 -6.34969e-011 0.707107   
     length 0.803651   
     axis -90 -45 3.84942e-014   XYZ
    dof rx rz
    limits (-45.0 45.0)
           (-45.0 45.0)
  end
:hierarchy
  begin
    root lhipjoint rhipjoint lowerback
    lhipjoint lfemur
    lfemur ltibia
    ltibia lfoot
    lfoot ltoes
    rhipjoint rfemur
    rfemur rtibia
    rtibia rfoot
    rfoot rtoes
    lowerback upperback
    upperback thorax
    thorax lowerneck lclavicle rclavicle
    lowerneck upperneck
    upperneck head
    lclavicle lhumerus
    lhumerus lradius
    lradius lwrist
    lwrist lhand lthumb
    lhand lfingers
    rclavicle rhumerus
    rhumerus rradius
    rradius rwrist
    rwrist rhand rthumb
    rhand rfingers
  end

#!OML:ASF H:\Terrain\Walking\May29\JustinRory\rory.ASF
:FULLY-SPECIFIED
:DEGREES
337
root 6.44982 17.7572 9.15638 -174.879 4.8981 -182.838
lowerback 12.1147 1.4394 -1.976
upperback 4.22907 2.11164 -1.70136
thorax -2.3604 1.25584 -0.956977
lowerneck -9.62712 -2.43909 -2.95389
upperneck 3.54724 -3.06838 2.50829
head 2.92906 -1.48669 1.16609
rclavicle 2.02512e-014 1.23246e-014
rhumerus -23.9536 6.77961 -48.4216
rradius 142.636
rwrist -28.1886
rhand 4.11854 41.0632
rfingers 7.12502
rthumb 29.5289 13.3917
lclavicle 2.02512e-014 1.23246e-014
lhumerus -41.8305 4.0377 70.1031
lradius 144.983
lwrist 21.4174
lhand -0.339559 9.5981
lfingers 7.12502
lthumb 25.2651 37.9452
rfemur -26.5185 6.12987 12.0957
rtibia 47.3499
rfoot -20.7596 -4.76064
rtoes 8.08601
lfemur -22.8109 7.43716 -20.3773
ltibia 45.9145
lfoot -23.1596 -2.70766
ltoes -1.04048
338
root 6.4273 17.6934 9.16941 -175.268 6.06513 -182.889
lowerback 12.439 1.783 -1.83233
upperback 4.40753 2.60883 -1.90191
thorax -2.33328 1.5196 -1.32486
lowerneck -9.59984 -2.45702 -3.0177
upperneck 3.39324 -3.08742 2.53576
head 2.87393 -1.49748 1.18544
rclavicle -4.5969e-015 1.88845e-014
rhumerus -22.5571 6.93372 -47.9338
rradius 142.433
rwrist -28.5606
rhand 4.51599 40.6951
rfingers 7.12502
rthumb 29.9082 13.0913
lclavicle -4.5969e-015 1.88845e-014
lhumerus -41.1798 2.33479 69.7453
lradius 145.218
lwrist 20.7855
lhand -0.79195 8.40372
lfingers 7.12502
lthumb 24.8316 36.8113
rfemur -27.1196 6.52257 11.9182
rtibia 48.717
rfoot -21.0404 -4.2171
rtoes 7.78039
lfemur -22.9506 8.41532 -20.529
ltibia 47.1409
lfoot -23.8367 -2.949
ltoes -0.762783
339
root 6.40197 17.6351 9.1576 -176.228 7.79684 -182.76
lowerback 13.2017 2.29725 -1.51237
upperback 4.73263 3.37699 -2.086
thorax -2.36905 1.93254 -1.83615
lowerneck -9.55847 -2.50706 -3.03277
upperneck 3.21426 -3.15455 2.54142
head 2.80752 -1.53254 1.18635
rclavicle -4.28132e-014 1.75924e-014
rhumerus -21.182 7.23827 -47.4924
rradius 142.394
rwrist -28.4564
rhand 4.42792 38.707
rfingers 7.12502
rthumb 29.8242 11.0881
lclavicle -4.28132e-014 1.75924e-014
lhumerus -40.2092 0.813037 68.97
lradius 145.523
lwrist 21.4319
lhand -2.37595 9.69749
lfingers 7.12502
lthumb 23.3128 38.306
rfemur -27.075 7.71503 11.9725
rtibia 50.0381
rfoot -21.2645 -3.72941
rtoes 7.64858
lfemur -22.3203 9.9031 -20.3948
ltibia 48.4545
lfoot -24.6807 -3.14002
ltoes -0.3537
340
root 6.41264 17.5236 9.27448 -175.116 6.92154 -183.041
lowerback 13.2892 1.98815 -1.75818
upperback 4.3132 2.86995 -2.17987
thorax -2.87141 1.65918 -1.73851
lowerneck -9.59721 -2.34218 -2.81305
upperneck 2.91919 -2.94823 2.27215
head 2.6966 -1.43943 1.07034
rclavicle 1.27222e-014 -2.32578e-014
rhumerus -19.6494 7.63461 -46.951
rradius 142.171
rwrist -28.231
rhand 3.49928 38.3978
rfingers 7.12502
rthumb 28.9375 10.6233
lclavicle 1.27222e-014 -2.32578e-014
lhumerus -39.0581 -0.190372 67.7254
lradius 145.882
lwrist 22.6837
lhand -2.75368 10.8055
lfingers 7.12502
lthumb 22.9503 39.4594
rfemur -29.468 6.921 11.6762
rtibia 51.656
rfoot -21.0119 -4.48335
rtoes 4.4644
lfemur -25.0426 9.45292 -20.7518
ltibia 50.1145
lfoot -24.5262 -3.58861
ltoes 0.129041
341
root 6.38475 17.4376 9.29753 -175.168 7.43521 -183.425
lowerback 13.2675 2.04323 -1.82748
upperback 4.54002 2.97499 -2.42426
thorax -2.60943 1.73014 -1.96234
lowerneck -9.60386 -2.16372 -2.71869
upperneck 2.46188 -2.72383 2.18746
head 2.53282 -1.33467 1.03797
rclavicle 2.65378e-014 -1.19271e-015
rhumerus -17.8849 7.70924 -46.2365
rradius 141.76
rwrist -28.3747
rhand 3.30956 38.5146
rfingers 7.12502
rthumb 28.7563 10.7092
lclavicle 2.65378e-014 -1.19271e-015
lhumerus -37.7658 -1.07725 66.4313
lradius 146.313
lwrist 23.9234
lhand -3.66202 11.7817
lfingers 7.12502
lthumb 22.0785 40.5413
rfemur -30.5776 6.83525 11.0834
rtibia 53.1622
rfoot -21.5849 -4.28576
rtoes 3.33894
lfemur -25.9197 9.7434 -21.3821
ltibia 51.6226
lfoot -25.2947 -3.09326
ltoes -1.59332
